# xmcd
#
# Track frame offsets:
# 150
# 14906
# 35393
# 52222
# 68888
# 85727
# 119395
# 137261
# 153965
# 162145
# 173886
# 202293
# 214908
# 233907
# 247165
# 273076
# 287745
# 304699
# 318331
# 333912
#
# Disc length: 4662 seconds
#
#
# Revision: 0
# Processed by: cddbd v1.5.2PL0 Copyright (c) Steve Scherf et al.
# Submitted via: FreeRIP 2.944 
#
DISCID=26123414
DTITLE=Rolling Stones - Forty Licks CD1
DYEAR=2002
DGENRE=Blues
TTITLE0=Start Me Up
TTITLE1=Brown Sugar
TTITLE2=Miss You
TTITLE3=Beast Of Burden
TTITLE4=Don't Stop
TTITLE5=Happy
TTITLE6=Angie
TTITLE7=You Got Me Rocking
TTITLE8=Shattered
TTITLE9=Fool To Cry
TTITLE10=Love Is Strong
TTITLE11=Mixed Emotions
TTITLE12=Keys To Your Love
TTITLE13=Anybody Seen My Baby?
TTITLE14=Stealing My Heart
TTITLE15=Tumbling Dice
TTITLE16=Undercover Of The Night
TTITLE17=Emotional Rescue
TTITLE18=It's Only Rock 'n Roll
TTITLE19=Losing My Touch
EXTD=
EXTT0=
EXTT1=
EXTT2=
EXTT3=
EXTT4=
EXTT5=
EXTT6=
EXTT7=
EXTT8=
EXTT9=
EXTT10=
EXTT11=
EXTT12=
EXTT13=
EXTT14=
EXTT15=
EXTT16=
EXTT17=
EXTT18=
EXTT19=
PLAYORDER=
